<svg xmlns="http://www.w3.org/2000/svg" viewBox="-7089 444 24.466 24.466">
  <defs>
    <style>
      .cls-1 {
        fill: #fff;
      }
    </style>
  </defs>
  <path id="progBar-questions" class="cls-1" d="M2672.233,806.467a12.217,12.217,0,1,1,8.655-3.578A12.157,12.157,0,0,1,2672.233,806.467Zm-2.316-6.425v3.424h3.35v-3.424Zm2.1-11.5c1.746,0,2.875.932,2.875,2.375v.049a2.222,2.222,0,0,1-1.122,1.972,7.25,7.25,0,0,1-3.5.828l-.125.124.5,4.05h2.025l.25-2.025c2.293-.392,5.025-1.585,5.025-5.05v-.049c0-3.083-2.3-5.075-5.85-5.075a7.642,7.642,0,0,0-6.025,2.775l1.875,2A5.417,5.417,0,0,1,2672.016,788.541Z" transform="translate(-9749 -338)"/>
</svg>
