<svg xmlns="http://www.w3.org/2000/svg" viewBox="-7261 444 24.466 24.466">
  <defs>
    <style>
      .cls-1 {
        fill: #fff;
      }
    </style>
  </defs>
  <path id="progBar-about" class="cls-1" d="M12.233,0A12.233,12.233,0,1,0,24.466,12.233,12.217,12.217,0,0,0,12.233,0Zm-.408,5.056A2.039,2.039,0,1,1,9.787,7.1,2.019,2.019,0,0,1,11.825,5.056ZM15.658,19.41H8.889v-.734H10.6c.408,0,.326-1.142.326-1.142V13.212a1.829,1.829,0,0,0-1.876-2.12v-.816H13.62v7.177s-.082,1.142.326,1.142h1.713Z" transform="translate(-7261 444)"/>
</svg>
